<?xml version="1.0" encoding="UTF-8"?><svg id="Layer_0_Image" data-name="Layer 0 Image" xmlns="http://www.w3.org/2000/svg" viewBox="0 0 800 600" x="0px" y="0px" width="800px" height="600px" version="1.1" xmlns:xlink="http://www.w3.org/1999/xlink"><title>1</title><path fill="#FBE962" d="M399.1,569.248c.54-11.055,3.27-21.8,4.661-32.733,2.956-23.246,1.433-46.458.361-69.743-1.5-32.583-12.918-62.751-21.469-93.611-8.2-29.592-13.157-59.491-11.93-90.3a133.473,133.473,0,0,1,9.409-43.293c5.815-14.968,11.987-29.8,18.966-44.262,8.805-18.246,12.373-37.689,13.326-57.646a396.979,396.979,0,0,0-.444-49.216c-.977-12.754-5.03-24.686-10.79-36.093a85.864,85.864,0,0,1-7.863-23.821,12.74,12.74,0,0,1,.181-5.635c.444-1.642.483-4.442,3.163-1.444.442.494.958-.354,1.407-.373,2.368-.1,3.979,1,4.038,3.449.207,8.551,3.762,16.082,7.385,23.487,4.4,8.986,9.55,17.641,12.513,27.245,3,9.713,5.8,19.447,5.64,29.868a153.182,153.182,0,0,0,1.627,21.4c.567,4.508-.35,8.933-.6,13.3-.169,2.913.993,5.4.749,8.143-.312,3.5-.325,7.032-.506,10.548-.5,9.772-2.5,19.291-4.558,28.833-3.659,16.992-12.608,31.953-18.088,48.25-4.115,12.233-9.154,24.214-11.971,36.8-1.645,7.347-1.731,15.144-1.742,22.74-.048,32.219,7.031,63.208,16.872,93.666,3.3,10.2,6.594,20.445,9.311,30.771a227.62,227.62,0,0,1,5.418,25.557c1.544,10.761,2.977,21.518,3.609,32.329,1.652,28.261.552,56.348-7.136,83.841a39.39,39.39,0,0,0-1.533,5.073c-1.023,7.5-6.666,10.545-12.61,13.292-2.3,1.062-7.214-2.1-7.376-4.7C399,573.068,399.094,571.155,399.1,569.248Zm11.165-46.923c-1.054,16.237-5.129,32.069-6.573,48.255C408.2,553.309,411.5,528.634,410.265,522.325Zm16.3-7.316.451.017V485.358h-.451Z"/></svg>