<svg height="512pt" viewBox="0 -22 512 512" width="512pt" xmlns="http://www.w3.org/2000/svg"><path d="m285.667969 74.953125-19 229.351563 19 147.695312h80v-85.335938h131.332031v-291.710937zm0 0" fill="#d9e7ec"/><path d="m74.332031 74.953125h211.332031v377.046875h-211.332031zm0 0" fill="#f3fffb"/><path d="m0 59.953125h30v407.046875h-30zm0 0" fill="#ffb11c"/><path d="m257.714844 282.5-.261719-41.472656-19.757813 33.28125h-13.519531l-19.761719-31.851563v40.042969h-27.953124v-91.003906h25.222656l29.640625 48.492187 28.863281-48.492187h25.21875l.261719 91.003906zm0 0" fill="#4f4f4f"/><path d="m349.070312 225.167969v14.820312h-47.582031v-11.832031l20.671875-17.679688c3.898438-3.25 4.679688-5.332031 4.679688-7.019531 0-2.082031-1.558594-3.640625-5.199219-3.640625-4.03125 0-7.019531 1.820313-8.710937 4.9375l-15.078126-7.148437c3.769532-7.410157 12.21875-12.871094 25.609376-12.871094 14.300781 0 23.921874 6.628906 23.921874 17.160156 0 5.199219-1.949218 9.75-10.402343 17.160157l-7.148438 6.109374h19.238281zm0 0" fill="#292929"/><path d="m512 0h-226.332031l-19 15 19 15h226.332031zm0 0" fill="#f29f00"/><path d="m59.332031 0h226.332031v30h-226.332031zm0 0" fill="#ffb11c"/><path d="m285.667969 59.953125-8.332031 13.546875 8.332031 16.453125h196.332031v261.710937h-131.332031v85.335938h-65l-8.332031 9.832031 8.332031 20.167969h95v-85.335938h131.332031v-321.710937zm0 0" fill="#aab8c7"/><path d="m89.332031 437v-347.046875h196.335938v-30h-226.335938v407.046875h226.335938v-30zm0 0" fill="#c5d3dd"/></svg>