<svg height="464pt" viewBox="0 0 464.00001 464" width="464pt" xmlns="http://www.w3.org/2000/svg"><path d="m350.761719 376h-237.523438c-10.832031 0-20.929687-5.480469-26.832031-14.566406-5.902344-9.082032-6.808594-20.535156-2.40625-30.433594l12-27v-144c0-53.019531 42.980469-96 96-96h80c53.019531 0 96 42.980469 96 96v144l12 27c4.402344 9.898438 3.496094 21.351562-2.40625 30.433594-5.902344 9.085937-16 14.566406-26.832031 14.566406zm0 0" fill="#ffb531"/><path d="m380 331-12-27v-144c.007812-21.289062-7.101562-41.972656-20.191406-58.761719-52.007813 148.503907-165.183594 233.160157-238.90625 274.472657 1.4375.191406 2.886718.289062 4.335937.289062h237.523438c10.832031 0 20.929687-5.480469 26.832031-14.566406 5.902344-9.082032 6.808594-20.535156 2.40625-30.433594zm0 0" fill="#ffa912"/><path d="m164 111.511719-8-13.847657c5.640625-3.265624 11.699219-5.746093 18.007812-7.382812l4 15.488281c-4.910156 1.265625-9.621093 3.195313-14.007812 5.742188zm0 0" fill="#ffcb73"/><path d="m136 192h-16v-32c-.054688-19.472656 7.84375-38.121094 21.863281-51.632812l11.144531 11.472656c-10.90625 10.507812-17.046874 25.015625-17.007812 40.160156zm0 0" fill="#ffcb73"/><path d="m272 64h-80l-32-64h144zm0 0" fill="#ffb531"/><path d="m248 192h-32c-8.835938 0-16-7.164062-16-16s7.164062-16 16-16h56v-16h-32v-16h-16v16h-8c-17.671875 0-32 14.328125-32 32s14.328125 32 32 32h32c8.835938 0 16 7.164062 16 16s-7.164062 16-16 16h-56v16h32v16h16v-16h8c17.671875 0 32-14.328125 32-32s-14.328125-32-32-32zm0 0" fill="#f58f00"/><path d="m396.960938 317.640625c-41.234376-32.074219-98.3125-34.339844-141.960938-5.640625h-63c-17.671875 0-32 14.328125-32 32s14.328125 32 32 32h-16l-124.609375-62.398438c-11.835937-5.929687-26.007813-4.652343-36.597656 3.292969l-.402344.296875c-9.0625 6.773438-14.3984375 17.429688-14.390625 28.746094v.839844c.0078125 13.089844 7.160156 25.128906 18.65625 31.390625l135.863281 74.113281c14.097657 7.6875 29.902344 11.71875 45.960938 11.71875h199.519531v-144zm0 0" fill="#fec9a3"/><path d="m400 320h64v144h-64zm0 0" fill="#348fd9"/><path d="m400 416h64v48h-64zm0 0" fill="#3086cd"/><path d="m424 416h16v16h-16zm0 0" fill="#1a5485"/><path d="m288 384h-96c-4.417969 0-8-3.582031-8-8s3.582031-8 8-8h96c4.417969 0 8 3.582031 8 8s-3.582031 8-8 8zm0 0" fill="#feb784"/></svg>