<svg id="Capa_1" enable-background="new 0 0 512 512" height="512" viewBox="0 0 512 512" width="512" xmlns="http://www.w3.org/2000/svg"><g><g><path d="m209.418 81.709-26.836-13.418 34.146-68.291h85.272v75z" fill="#60474f"/></g><path d="m30 75h302v422h-302z" fill="#8adb53"/><path d="m181 75h151v422h-151z" fill="#4fc16e"/><g><path d="m0 482h377v30h-377z" fill="#4fc16e"/></g><g><path d="m0 60h362v30h-362z" fill="#4fc16e"/></g><g><path d="m0 272h297.499v30h-297.499z" fill="#4fc16e"/></g><g fill="#369151"><path d="m181 272h116.499v30h-116.499z"/><path d="m181 60h181v30h-181z"/><path d="m181 482h196v30h-196z"/></g><g><circle cx="377" cy="377" fill="#ffea80" r="135"/><path d="m512 377c0-74.559-60.441-135-135-135v270c74.559 0 135-60.441 135-135z" fill="#ffc34d"/><path d="m377 362c-8.276 0-15-6.724-15-15s6.724-15 15-15 15 6.724 15 15h30c0-19.53-12.578-36.024-30-42.237v-32.763h-15-15v32.763c-17.422 6.213-30 22.707-30 42.237 0 24.814 20.186 45 45 45 8.276 0 15 6.724 15 15s-6.724 15-15 15-15-6.724-15-15h-30c0 19.53 12.578 36.024 30 42.237v32.763h15 15v-32.763c17.422-6.213 30-22.707 30-42.237 0-24.814-20.186-45-45-45z" fill="#ffc34d"/><g fill="#f93"><path d="m392 449.237c17.422-6.213 30-22.707 30-42.237 0-24.814-20.186-45-45-45v30c8.276 0 15 6.724 15 15s-6.724 15-15 15v60h15z"/><path d="m392 347h30c0-19.53-12.578-36.024-30-42.237v-32.763h-15v60c8.276 0 15 6.724 15 15z"/></g></g></g></svg>