<?xml version="1.0"?>
<svg xmlns="http://www.w3.org/2000/svg" xmlns:xlink="http://www.w3.org/1999/xlink" xmlns:svgjs="http://svgjs.com/svgjs" version="1.1" width="512" height="512" x="0" y="0" viewBox="0 0 74 74" style="enable-background:new 0 0 512 512" xml:space="preserve" class=""><g><path xmlns="http://www.w3.org/2000/svg" d="m39 72h-2.97a1 1 0 0 1 0-2h2.97a1 1 0 0 1 0 2z" fill="#68f2b5" data-original="#000000" style="" class=""/><path xmlns="http://www.w3.org/2000/svg" d="m69 72h-23a1 1 0 0 1 0-2h23a1 1 0 0 0 1-1v-64a1 1 0 0 0 -1-1h-64a1 1 0 0 0 -1 1v64a1 1 0 0 0 1 1h14.13a1 1 0 0 1 0 2h-14.13a3 3 0 0 1 -3-3v-64a3 3 0 0 1 3-3h64a3 3 0 0 1 3 3v64a3 3 0 0 1 -3 3z" fill="#68f2b5" data-original="#000000" style="" class=""/><path xmlns="http://www.w3.org/2000/svg" d="m29.03 72h-2.9a1 1 0 1 1 0-2h2.9a1 1 0 0 1 0 2z" fill="#68f2b5" data-original="#000000" style="" class=""/><path xmlns="http://www.w3.org/2000/svg" d="m71 19h-68a1 1 0 0 1 0-2h68a1 1 0 0 1 0 2z" fill="#68f2b5" data-original="#000000" style="" class=""/><path xmlns="http://www.w3.org/2000/svg" d="m63.5 11.312h-1.111a1 1 0 0 1 0-2h1.111a1 1 0 0 1 0 2z" fill="#68f2b5" data-original="#000000" style="" class=""/><path xmlns="http://www.w3.org/2000/svg" d="m56.137 11.312h-1.111a1 1 0 0 1 0-2h1.111a1 1 0 0 1 0 2z" fill="#68f2b5" data-original="#000000" style="" class=""/><path xmlns="http://www.w3.org/2000/svg" d="m48.774 11.312h-1.111a1 1 0 0 1 0-2h1.111a1 1 0 0 1 0 2z" fill="#68f2b5" data-original="#000000" style="" class=""/><path xmlns="http://www.w3.org/2000/svg" d="m33.86 56.958h-.061a1 1 0 0 1 -.882-.662l-8.109-22.71a1 1 0 0 1 1.278-1.278l22.708 8.11a1 1 0 0 1 .111 1.836l-9.434 4.717-4.717 9.434a1 1 0 0 1 -.894.553zm-6.46-22.058 6.611 18.513 3.818-7.637a1.007 1.007 0 0 1 .447-.447l7.636-3.818z" fill="#68f2b5" data-original="#000000" style="" class=""/><path xmlns="http://www.w3.org/2000/svg" d="m46.835 55.335a1 1 0 0 1 -.707-.293l-8.109-8.109a1 1 0 0 1 1.414-1.414l8.109 8.109a1 1 0 0 1 -.707 1.707z" fill="#68f2b5" data-original="#000000" style="" class=""/></g></svg>
